<svg xmlns="http://www.w3.org/2000/svg" viewBox="0 0 240 60.05"><defs><style>.cls-1{fill:#fff;}</style></defs><title>Logo</title><g id="Layer_2" data-name="Layer 2"><g id="Layer_1-2" data-name="Layer 1"><path class="cls-1" d="M12.14,24.73V23.25a.88.88,0,0,0-.08-.42.44.44,0,0,1,0-.2c0-.2,0-.39,0-.59a.53.53,0,0,0,0-.25.6.6,0,0,1-.05-.26V21.1a.85.85,0,0,0-.06-.31.73.73,0,0,1,0-.25c0-.13,0-.25,0-.38a.71.71,0,0,0,0-.2,1.15,1.15,0,0,1-.07-.36v-.32a1.55,1.55,0,0,0,0-.21.86.86,0,0,1-.07-.36v-.32a1.18,1.18,0,0,0,0-.2.93.93,0,0,1-.06-.37,1.35,1.35,0,0,0-.08-.52.25.25,0,0,1,0-.15c0-.12,0-.25,0-.37a.49.49,0,0,0,0-.21,1.53,1.53,0,0,1-.08-.52.74.74,0,0,0,0-.26,1.31,1.31,0,0,1-.07-.52,1.25,1.25,0,0,0-.07-.47.71.71,0,0,1,0-.21c0-.12,0-.24,0-.37a.45.45,0,0,0,0-.2,1.53,1.53,0,0,1-.07-.47v-.27a.76.76,0,0,0,0-.21,2.24,2.24,0,0,1-.07-.73,1.81,1.81,0,0,0-.07-.52,1.13,1.13,0,0,1,0-.32v-.79a1.22,1.22,0,0,0-.06-.42A.81.81,0,0,1,10.6,10V7.65a1.82,1.82,0,0,1,.07-.57,1.26,1.26,0,0,0,0-.27c0-.12,0-.24,0-.37a.65.65,0,0,1,0-.2,1.91,1.91,0,0,0,.1-.52c.08-.2.09-.42.17-.61s.1-.3.15-.46a2,2,0,0,1,.3-.61,3.28,3.28,0,0,1,.2-.31c.09-.11.19-.21.29-.31l.19-.19a1.13,1.13,0,0,1,.46-.33l.34-.16a.75.75,0,0,1,.3-.09.57.57,0,0,0,.26,0,.82.82,0,0,1,.41-.06h.37c.18.08.38.08.56.15a1.15,1.15,0,0,1,.47.23c.17.06.28.22.45.28a1.92,1.92,0,0,1,.45.45c.14.2.26.41.41.61a.64.64,0,0,1,.08.14c.2.39.4.78.59,1.18,0,.06.05.13.08.2.15.48.32,1,.48,1.45a1,1,0,0,1,0,.25,1.05,1.05,0,0,0,.08.36c0,.1.06.2.09.3a.47.47,0,0,1,0,.16,1.79,1.79,0,0,0,.11.51c0,.08,0,.18.05.26a.82.82,0,0,1,.07.31.85.85,0,0,0,.06.31.66.66,0,0,1,0,.15.34.34,0,0,1,0,.1,1.75,1.75,0,0,0,.09.41c0,.14,0,.28,0,.43l0,0a1,1,0,0,1,.07.36,2.46,2.46,0,0,0,0,.26,1.14,1.14,0,0,1,.09.52.37.37,0,0,0,0,.15,1.5,1.5,0,0,1,.08.47.76.76,0,0,0,0,.21,1.21,1.21,0,0,1,.08.46,1.2,1.2,0,0,0,.07.42,1.09,1.09,0,0,1,0,.26,1.53,1.53,0,0,0,.08.52.74.74,0,0,1,0,.26,1.54,1.54,0,0,0,.09.52.78.78,0,0,1,0,.16,3.15,3.15,0,0,0,.09.52,1.63,1.63,0,0,1,0,.31,1.65,1.65,0,0,0,0,.32,1.82,1.82,0,0,1,.08.52.92.92,0,0,0,.07.36.36.36,0,0,1,0,.1,3.55,3.55,0,0,0,.06.47,2.57,2.57,0,0,1,.08.47.49.49,0,0,0,0,.21,1.26,1.26,0,0,1,.08.47.65.65,0,0,0,0,.2,1,1,0,0,1,.07.42.85.85,0,0,0,.06.31,1.09,1.09,0,0,1,.05.26.82.82,0,0,0,.07.3,2.93,2.93,0,0,0,.13.51.11.11,0,0,1,0,0l0,.32a2.7,2.7,0,0,1,.14.4.42.42,0,0,1,0,.15,2.62,2.62,0,0,0,.11.4c0,.13.09.23.11.36a2.66,2.66,0,0,0,.16.39,1.84,1.84,0,0,1,.09.25.5.5,0,0,0,.19.24.14.14,0,0,0,.19,0,.51.51,0,0,0,.12-.23,2.73,2.73,0,0,1,.1-.41c.05-.13.05-.28.1-.41a.71.71,0,0,0,0-.21,1.13,1.13,0,0,1,.06-.31.65.65,0,0,0,0-.2,1.3,1.3,0,0,1,.09-.52.44.44,0,0,0,0-.16c0-.12,0-.25,0-.37a.78.78,0,0,1,0-.21,1.2,1.2,0,0,0,.07-.46,1,1,0,0,1,.07-.42.74.74,0,0,0,0-.26c0-.18,0-.35,0-.53a.6.6,0,0,1,0-.26.53.53,0,0,0,.05-.25c0-.16,0-.32,0-.48a.58.58,0,0,1,.05-.26.58.58,0,0,0,0-.26c0-.15,0-.31,0-.47a1.22,1.22,0,0,1,.06-.42.65.65,0,0,0,0-.2v-.48a1,1,0,0,1,.07-.42.65.65,0,0,0,0-.2v-.53a.86.86,0,0,1,.07-.36.78.78,0,0,0,0-.21v-.53a1.13,1.13,0,0,1,.06-.36.52.52,0,0,0,0-.21c0-.14,0-.28,0-.42a1,1,0,0,1,.06-.36.52.52,0,0,0,0-.21c0-.12,0-.25,0-.37a.58.58,0,0,1,.05-.26.58.58,0,0,0,.05-.26c0-.12,0-.24,0-.37a.53.53,0,0,1,.05-.25.8.8,0,0,0,.05-.26,2.44,2.44,0,0,1,0-.27.36.36,0,0,1,0-.15,1.69,1.69,0,0,0,.09-.63.36.36,0,0,1,0-.15,1.17,1.17,0,0,0,.09-.52,2.11,2.11,0,0,1,.09-.36,1.42,1.42,0,0,1,.05-.36,1.17,1.17,0,0,0,.08-.36,1.16,1.16,0,0,1,.07-.42.83.83,0,0,0,0-.15,4.54,4.54,0,0,1,.18-.83c.05-.18.08-.38.15-.56a1.75,1.75,0,0,1,.14-.51c.08-.23.1-.48.2-.71a.38.38,0,0,0,0-.1,4.07,4.07,0,0,0,.18-.44,2.38,2.38,0,0,0,.15-.45s0-.07,0-.1l.47-.94a5.14,5.14,0,0,1,.32-.49,1.64,1.64,0,0,1,.14-.22,1.73,1.73,0,0,1,.17-.21L26.33,1a2.64,2.64,0,0,1,.39-.36l.66-.33a3.56,3.56,0,0,1,.56-.15l.1,0A1.64,1.64,0,0,1,28.83,0a.38.38,0,0,1,.1,0,1.47,1.47,0,0,0,.3.08,3.54,3.54,0,0,1,.55.18,1.71,1.71,0,0,1,.65.44,2.13,2.13,0,0,0,.3.3,2.92,2.92,0,0,1,.48.63.92.92,0,0,1,.14.28,1.93,1.93,0,0,0,.15.4c.06.11.07.23.12.34A.84.84,0,0,1,31.7,3a.83.83,0,0,0,0,.15.69.69,0,0,1,.06.31.76.76,0,0,0,.06.26,1.09,1.09,0,0,1,.05.26,1,1,0,0,0,.08.46.77.77,0,0,1,0,.26v.8a1.25,1.25,0,0,0,.07.47.71.71,0,0,1,0,.21c0,.51,0,1,0,1.53a.75.75,0,0,1,0,.26,1.52,1.52,0,0,0-.06.42V9.55a1.66,1.66,0,0,1-.08.63,1.09,1.09,0,0,0,0,.26v.69a.75.75,0,0,1,0,.26.92.92,0,0,0-.07.36v.58a.7.7,0,0,1-.06.32.73.73,0,0,0,0,.25c0,.16,0,.32,0,.48a.52.52,0,0,1,0,.21,1.14,1.14,0,0,0-.07.41v.48a.52.52,0,0,1,0,.21,1,1,0,0,0-.06.36c0,.14,0,.28,0,.42a.71.71,0,0,1,0,.21,1,1,0,0,0-.07.41c0,.13,0,.25,0,.37a.71.71,0,0,1,0,.21.92.92,0,0,0-.07.36c0,.14,0,.28,0,.42a.47.47,0,0,1,0,.21.77.77,0,0,0-.07.36v.48a.81.81,0,0,1-.06.31.75.75,0,0,0,0,.26c0,.19,0,.39,0,.58a.39.39,0,0,1,0,.21,1,1,0,0,0-.07.41v1.06a.85.85,0,0,1-.06.36.58.58,0,0,0-.05.26v1.49a.56.56,0,0,0,.05.25.69.69,0,0,1,.06.31,2,2,0,0,0,0,.48.17.17,0,0,0,.12.08h.05a.53.53,0,0,0,.27-.24,3.47,3.47,0,0,0,.18-.33,3.9,3.9,0,0,0,.49-.87l.5-1a2.55,2.55,0,0,0,.22-.54,1.28,1.28,0,0,1,.11-.24,4.06,4.06,0,0,0,.33-.77,1.92,1.92,0,0,1,.14-.29,1.7,1.7,0,0,0,.18-.44.32.32,0,0,1,0-.09,5.24,5.24,0,0,0,.23-.48,3.58,3.58,0,0,1,.2-.49.18.18,0,0,0,0-.1,4.4,4.4,0,0,1,.34-.77,1.51,1.51,0,0,0,.13-.29,2.66,2.66,0,0,1,.16-.39,1.06,1.06,0,0,0,.09-.25l.1-.24a4.26,4.26,0,0,0,.36-.82,1.79,1.79,0,0,1,.12-.24,2.65,2.65,0,0,0,.2-.49,1.23,1.23,0,0,1,.13-.29c.14-.3.3-.6.44-.9a1.7,1.7,0,0,0,.18-.44,1.85,1.85,0,0,1,.13-.29c.18-.34.35-.69.53-1a4,4,0,0,1,.26-.45c.09-.13.15-.28.23-.42a3.12,3.12,0,0,1,.34-.59.2.2,0,0,0,.05-.09c.11-.23.27-.42.38-.64s.2-.33.33-.48.21-.28.29-.44A.38.38,0,0,1,38.94,9a2.09,2.09,0,0,0,.4-.49.7.7,0,0,1,.14-.16l.75-.75a1,1,0,0,1,.25-.19l.17-.12a1.69,1.69,0,0,1,.53-.35,6,6,0,0,1,.58-.25,2.09,2.09,0,0,1,.36-.08,1.87,1.87,0,0,1,.78-.1,1.42,1.42,0,0,1,.67.11,4.47,4.47,0,0,1,.79.31.66.66,0,0,1,.22.15,2.6,2.6,0,0,0,.33.25,2,2,0,0,1,.39.37.74.74,0,0,1,.08.13l.24.47a2.71,2.71,0,0,1,.17.39c0,.15.07.31.12.46a.78.78,0,0,1,0,.16v1.48a.51.51,0,0,1,0,.21,1.86,1.86,0,0,0-.09.62,1.3,1.3,0,0,1,0,.21,1.15,1.15,0,0,0-.07.36c0,.15-.09.27-.09.41s-.11.3-.12.46a2.77,2.77,0,0,1-.12.41,1.92,1.92,0,0,0-.11.46c-.06.17-.11.34-.17.5s0,.32-.12.46l-.15.5c-.29.83-.55,1.67-.84,2.5a1.51,1.51,0,0,1-.1.3,2.49,2.49,0,0,0-.23.59c-.08.27-.19.53-.27.8a1.19,1.19,0,0,1-.08.2,4.44,4.44,0,0,0-.24.64c-.13.37-.24.74-.4,1.09a2.06,2.06,0,0,0-.12.35,2.06,2.06,0,0,1-.12.35,1.47,1.47,0,0,1-.14.4.85.85,0,0,0-.11.35.3.3,0,0,1-.05.15c-.16.33-.24.69-.37,1a3.88,3.88,0,0,0-.14.45,3.43,3.43,0,0,0-.16.45,2.35,2.35,0,0,0-.14.45l-.16.45c-.08.25-.17.5-.25.75s-.22.67-.28,1a1.52,1.52,0,0,1-.06.2,4.63,4.63,0,0,0-.17.61,2,2,0,0,1-.11.35,2.08,2.08,0,0,0-.11.41,2,2,0,0,0-.1.41,1.87,1.87,0,0,0-.12.57c-.06.18-.08.38-.14.56a.81.81,0,0,0-.06.31,2,2,0,0,1-.1.41c0,.14,0,.28,0,.42a.42.42,0,0,1,0,.1,1.09,1.09,0,0,0,0,.26c0,.1,0,.21,0,.31a1.52,1.52,0,0,0-.1.63.36.36,0,0,1,0,.15,1.41,1.41,0,0,0-.08.57v.59a.45.45,0,0,1,0,.2.91.91,0,0,0-.06.36c0,.57,0,1.13,0,1.7a2.28,2.28,0,0,0,0,.26,1,1,0,0,1,.08.52c0,.11,0,.21,0,.32a.45.45,0,0,0,0,.2.76.76,0,0,1,.06.26,3.15,3.15,0,0,0,.25.69.83.83,0,0,0,.17.21.42.42,0,0,0,.39.1,1.42,1.42,0,0,0,.35-.11,5.16,5.16,0,0,0,.84-.44,2.61,2.61,0,0,0,.47-.35c.24-.12.41-.33.64-.46a1.57,1.57,0,0,0,.24-.21l.31-.28a1.2,1.2,0,0,0,.38-.29c.27-.28.54-.55.82-.82a.68.68,0,0,1,.2-.18,2.21,2.21,0,0,0,.52-.44,2.48,2.48,0,0,1,.53-.44.7.7,0,0,0,.16-.14l.6-.59a1.28,1.28,0,0,1,.29-.23.91.91,0,0,0,.24-.2,2,2,0,0,1,.45-.37.6.6,0,0,0,.13-.09,2.84,2.84,0,0,1,.54-.43A3,3,0,0,0,48.4,33c.11-.12.28-.16.39-.28a2.46,2.46,0,0,0,.42-.23,2.12,2.12,0,0,1,.36-.21,2,2,0,0,0,.27-.17A.37.37,0,0,1,50,32a4.43,4.43,0,0,0,.67-.3c.15-.06.29-.13.44-.18a4,4,0,0,0,.45-.15,2.37,2.37,0,0,0,.46-.11.29.29,0,0,1,.16,0,2.34,2.34,0,0,0,.52-.08.49.49,0,0,1,.21,0c.24,0,.49,0,.74,0a.37.37,0,0,1,.15,0c.25.1.53.07.78.18a.36.36,0,0,0,.15,0,.66.66,0,0,1,.2.06,1.54,1.54,0,0,0,.45.17,3.09,3.09,0,0,1,.64.36c.11.08.25.14.35.23a1.1,1.1,0,0,1,.38.29c.24.23.47.47.71.71a1,1,0,0,1,.22.29,1.75,1.75,0,0,1,.35.71c.05.09.05.21.1.3a.86.86,0,0,1,.07.36v.58a.81.81,0,0,1-.06.31.42.42,0,0,0,0,.15,3.13,3.13,0,0,1-.25.75,3.6,3.6,0,0,1-.39.69.79.79,0,0,1-.19.25.74.74,0,0,0-.15.21.89.89,0,0,1-.16.22l-1.17,1.15a.7.7,0,0,1-.16.14,1.48,1.48,0,0,0-.37.29.67.67,0,0,1-.25.19l-.09.06a4.62,4.62,0,0,1-.73.52.27.27,0,0,0-.08.07,3.25,3.25,0,0,1-.29.23l-.35.23c-.11.06-.2.14-.31.2a.65.65,0,0,0-.21.16l-.12.1a2.11,2.11,0,0,0-.31.21c-.08.09-.17.17-.26.26a.55.55,0,0,1-.17.13,1.74,1.74,0,0,0-.36.3l-.53.52a1.06,1.06,0,0,1-.2.17,1.78,1.78,0,0,0-.45.37l-1.38,1.39a.68.68,0,0,0-.18.2,2.43,2.43,0,0,1-.44.52c-.22.23-.45.45-.67.67a1.32,1.32,0,0,0-.3.37.55.55,0,0,1-.13.17l-.34.34a1.32,1.32,0,0,0-.29.37,1.06,1.06,0,0,1-.17.2,3.19,3.19,0,0,1-.26.26,1,1,0,0,0-.14.16,2.59,2.59,0,0,1-.55.64,1.29,1.29,0,0,0-.22.3,1.51,1.51,0,0,1-.17.2l-.29.31a2.3,2.3,0,0,1-.47.56.64.64,0,0,0-.1.13,1.68,1.68,0,0,1-.4.48,1.86,1.86,0,0,0-.33.41,1.12,1.12,0,0,1-.17.21,2.09,2.09,0,0,0-.41.48.65.65,0,0,1-.13.16l-.3.3a.78.78,0,0,0-.16.21,1.28,1.28,0,0,1-.23.29l-.26.27a.54.54,0,0,0-.14.16,2.3,2.3,0,0,1-.47.56c-.14.14-.28.27-.41.41a1.19,1.19,0,0,0-.3.37.65.65,0,0,1-.13.16L39.13,56a1.37,1.37,0,0,1-.3.22.65.65,0,0,0-.16.13l-.41.41A1,1,0,0,1,38,57a.51.51,0,0,0-.13.09,3.59,3.59,0,0,1-.57.46,2.7,2.7,0,0,1-.34.25l-.13.1a1.5,1.5,0,0,1-.24.2c-.16.08-.29.21-.45.28a2.07,2.07,0,0,0-.32.19,2,2,0,0,1-.32.18q-.45.24-.9.45l-.43.21a2.35,2.35,0,0,0-.45.14c-.15,0-.3.09-.45.15a.83.83,0,0,1-.15,0,3.06,3.06,0,0,0-.41.1c-.11,0-.24,0-.35.09a.63.63,0,0,1-.27,0,1,1,0,0,0-.41.07.49.49,0,0,1-.21,0H29.94a.82.82,0,0,1-.31-.07l-.21,0a1.3,1.3,0,0,1-.52,0c-.16-.07-.36,0-.51-.13l-.05,0a1.55,1.55,0,0,1-.36-.08,1.51,1.51,0,0,0-.3-.1l-.1,0a1.58,1.58,0,0,1-.6-.2,4.93,4.93,0,0,1-.91-.4,2.33,2.33,0,0,0-.49-.21.15.15,0,0,1-.09,0,3.41,3.41,0,0,0-.55-.32,2.7,2.7,0,0,1-.59-.35l-.1,0a4.68,4.68,0,0,1-.71-.44c-.15-.1-.29-.21-.44-.3a1.29,1.29,0,0,1-.3-.22.74.74,0,0,0-.17-.12,1.18,1.18,0,0,1-.25-.19.53.53,0,0,0-.12-.1,1.72,1.72,0,0,1-.49-.4,1.28,1.28,0,0,0-.29-.23,1,1,0,0,1-.25-.2c-.18-.17-.35-.35-.52-.52a1.57,1.57,0,0,0-.38-.3.94.94,0,0,1-.12-.09l-.34-.34a.24.24,0,0,1-.06-.08,2.3,2.3,0,0,0-.52-.6c-.13-.14-.27-.28-.41-.41a.7.7,0,0,1-.14-.16,3.66,3.66,0,0,0-.46-.58.16.16,0,0,1-.06-.08,1.14,1.14,0,0,0-.23-.3,1.23,1.23,0,0,1-.26-.33.65.65,0,0,0-.13-.16.93.93,0,0,1-.18-.26.24.24,0,0,0-.06-.09A2.66,2.66,0,0,1,17,51l-.32-.48c-.12-.2-.25-.38-.36-.59a4.08,4.08,0,0,0-.28-.44,2.14,2.14,0,0,1-.25-.41,3.68,3.68,0,0,0-.3-.5,3.5,3.5,0,0,1-.27-.51l-1-1.94a1.38,1.38,0,0,1-.15-.4,1.63,1.63,0,0,0-.09-.19,4.41,4.41,0,0,1-.32-.78,3.42,3.42,0,0,0-.13-.34c-.05-.1-.08-.2-.12-.3-.15-.43-.28-.87-.44-1.3-.1-.27-.13-.55-.22-.82a2,2,0,0,0-.11-.4,1.58,1.58,0,0,0-.09-.36c0-.11,0-.25-.08-.36a.88.88,0,0,1-.06-.36.2.2,0,0,0,0-.11,1.49,1.49,0,0,1-.1-.51.17.17,0,0,0,0-.1.92.92,0,0,1-.07-.36v-.21a.76.76,0,0,0,0-.16,1.31,1.31,0,0,1-.07-.52V37.07a.85.85,0,0,1,.06-.36.85.85,0,0,0,0-.32.92.92,0,0,1,.07-.36.08.08,0,0,0,0-.05,6.46,6.46,0,0,1,.24-.86,1.08,1.08,0,0,1,.08-.19c.19-.38.37-.76.57-1.14a3.42,3.42,0,0,1,.26-.4,1,1,0,0,1,.09-.13,3.1,3.1,0,0,0,.35-.46l.22-.23.45-.45a1,1,0,0,1,.33-.25.41.41,0,0,0,.13-.1,1.3,1.3,0,0,1,.39-.27l.66-.33a3.8,3.8,0,0,1,.8-.28l.2-.05a.8.8,0,0,1,.26-.05,2.25,2.25,0,0,0,.58-.08.84.84,0,0,1,.47,0,2.32,2.32,0,0,0,.52.07.81.81,0,0,1,.31.05c.17.07.35.07.51.14s.41.12.6.21.67.32,1,.49a3,3,0,0,1,.44.29,2.66,2.66,0,0,0,.38.28,1,1,0,0,1,.16.13l.27.26a1.62,1.62,0,0,0,.19.18.92.92,0,0,1,.26.26.3.3,0,0,0,.28.11.25.25,0,0,0,.15,0l.16-.14.38-.37a1.2,1.2,0,0,1,.41-.33.53.53,0,0,0,.12-.1,2.13,2.13,0,0,1,.34-.25,2.67,2.67,0,0,1,.36-.22.61.61,0,0,0,.14-.07,1.84,1.84,0,0,1,.6-.32c.22-.07.42-.18.64-.25a5.44,5.44,0,0,1,.76-.22,1.18,1.18,0,0,1,.52-.08h1a2.27,2.27,0,0,1,.52,0,6,6,0,0,1,.92.27,2.14,2.14,0,0,0,.44.18.2.2,0,0,1,.09,0,1.75,1.75,0,0,0,.46.26c.14.07.24.21.39.26l.2.18.56.56a1.44,1.44,0,0,1,.27.33,1.77,1.77,0,0,0,.12.17,1.69,1.69,0,0,1,.2.25,4.87,4.87,0,0,1,.27.45c.12.25.26.5.38.75a1.09,1.09,0,0,1,.1.25,1.45,1.45,0,0,0,.11.29,1,1,0,0,1,.13.4c0,.14.1.27.1.41s.07.2.08.31,0,.21,0,.31a.38.38,0,0,0,0,.1.66.66,0,0,1,.06.31c0,.11,0,.21,0,.32a.51.51,0,0,0,0,.21,1.2,1.2,0,0,1,.07.46v.74a1,1,0,0,1-.07.42.74.74,0,0,0,0,.26c0,.14,0,.28,0,.42a.58.58,0,0,1-.05.26.54.54,0,0,0,0,.1c0,.12,0,.25,0,.37a1.49,1.49,0,0,0-.09.3c0,.16-.1.3-.11.46s-.11.3-.13.46a1.06,1.06,0,0,0-.09.35.37.37,0,0,1,0,.15c-.08.18-.15.36-.22.54a4.29,4.29,0,0,0-.19.5,1.43,1.43,0,0,1-.13.28,4.49,4.49,0,0,0-.31.67.37.37,0,0,1-.07.14.78.78,0,0,0-.14.29.61.61,0,0,1-.07.14,3,3,0,0,0-.27.45,3.6,3.6,0,0,1-.39.69.41.41,0,0,0-.05.09,7.66,7.66,0,0,1-.41.68c-.27.39-.53.79-.79,1.19-.15.23-.33.45-.47.7a.16.16,0,0,1-.06.08,4.78,4.78,0,0,0-.47.64.6.6,0,0,1-.09.13,2.07,2.07,0,0,0-.28.38,1,1,0,0,1-.14.17.8.8,0,0,0-.15.21s-.05.1-.09.13a2.66,2.66,0,0,0-.37.51,4.23,4.23,0,0,1-.32.42c-.11.12-.15.28-.28.38a3.39,3.39,0,0,0-.27.39c-.11.14-.2.29-.31.42a4.5,4.5,0,0,0-.36.53.89.89,0,0,1-.45.36l-.15,0a2.44,2.44,0,0,1-.47,0,.36.36,0,0,1-.2-.08L25.51,53a1.17,1.17,0,0,1-.21-.36.18.18,0,0,1,0-.1,1.22,1.22,0,0,1,0-.27.4.4,0,0,1,0-.15c.05-.09.09-.19.15-.28l.59-.87a.43.43,0,0,1,.09-.13,2.73,2.73,0,0,0,.35-.47,2.54,2.54,0,0,1,.35-.46,3.07,3.07,0,0,1,.38-.51c.09-.23.32-.37.42-.6l0,0a2.71,2.71,0,0,0,.38-.51,4.13,4.13,0,0,1,.31-.42c.11-.14.19-.3.3-.44a1.77,1.77,0,0,1,.12-.17c.27-.31.46-.67.7-1,.08-.11.15-.23.23-.35a3.58,3.58,0,0,0,.3-.49c.06-.15.19-.26.25-.41a1.93,1.93,0,0,1,.22-.36,2.4,2.4,0,0,0,.16-.27c.23-.48.47-1,.7-1.43a1.26,1.26,0,0,0,.12-.29.56.56,0,0,1,.08-.2,5.82,5.82,0,0,0,.41-1,3.5,3.5,0,0,0,.17-.55,4.21,4.21,0,0,0,.12-.51.37.37,0,0,1,0-.15,1.16,1.16,0,0,0,.07-.37,1.13,1.13,0,0,1,.06-.36.83.83,0,0,0,0-.15c0-.06,0-.11,0-.16V37.37a.75.75,0,0,0-.07-.36.38.38,0,0,1,0-.1,2.52,2.52,0,0,0-.12-.62,5.83,5.83,0,0,0-.57-1.48c-.07-.12-.15-.23-.23-.35a4.27,4.27,0,0,0-.3-.44,5.25,5.25,0,0,0-.4-.42l-.23-.21c-.17-.06-.28-.21-.45-.28l-.47-.23a.79.79,0,0,0-.26-.08.37.37,0,0,1-.15,0,1.08,1.08,0,0,0-.47-.07h-.42a1,1,0,0,0-.52.08,1.25,1.25,0,0,0-.46.12A.89.89,0,0,0,27,33l-.33.16a6.06,6.06,0,0,0-.78.45,1.7,1.7,0,0,1-.22.15l-.13.09-.78.79,0,0a.23.23,0,0,0,0,.24l.29.31a1.22,1.22,0,0,1,.2.25.3.3,0,0,0,.09.13,2.12,2.12,0,0,1,.35.53,1,1,0,0,0,.11.17,3.25,3.25,0,0,1,.28.52,3.44,3.44,0,0,1,.15.55.2.2,0,0,0,0,.11.9.9,0,0,1,.09.46.81.81,0,0,0,.06.31.45.45,0,0,1,0,.36.58.58,0,0,0-.06.26c0,.1,0,.21,0,.31a.41.41,0,0,1,0,.16,3.3,3.3,0,0,1-.3.73l0,.05a.5.5,0,0,1-.07.08,5.07,5.07,0,0,0-.35.46.29.29,0,0,1-.12.1,1.66,1.66,0,0,0-.34.25,1,1,0,0,1-.31.19,2.8,2.8,0,0,1-.41.13,2,2,0,0,0-.4.1.44.44,0,0,1-.16,0h-.53a.89.89,0,0,1-.36-.07.19.19,0,0,0-.1,0,1.57,1.57,0,0,1-.69-.26.53.53,0,0,1-.12-.1,1.29,1.29,0,0,0-.3-.22l-.11-.11a1.13,1.13,0,0,0-.12-.18,3.35,3.35,0,0,1-.56-.95,3.81,3.81,0,0,1-.13-.45,2.81,2.81,0,0,0-.08-.31.49.49,0,0,1,0-.21v-.74a.83.83,0,0,1,.07-.41c0-.19.1-.37.13-.56a1.57,1.57,0,0,1,.13-.4l.26-.52c.1-.21.26-.39.37-.59l.1-.12L22,35a.17.17,0,0,0,0-.24l-.14-.16-.75-.75a1,1,0,0,0-.25-.19,4.17,4.17,0,0,0-.44-.29,4.59,4.59,0,0,0-1.14-.55l-.15,0a.9.9,0,0,1-.16,0,1.22,1.22,0,0,0-.57-.08h-.53a.83.83,0,0,0-.41.07h-.05a1.49,1.49,0,0,0-.59.21l-.38.19c-.11.06-.2.15-.31.21a.65.65,0,0,0-.16.13l-.23.22c-.12.13-.26.25-.36.38s-.21.33-.32.49a5.12,5.12,0,0,0-.47.82l-.08.2c-.07.22-.14.44-.22.65a1.86,1.86,0,0,0-.13.62.44.44,0,0,1,0,.16,1.62,1.62,0,0,0-.07.62c0,.16,0,.32,0,.48a.75.75,0,0,0,0,.26,1.85,1.85,0,0,1,.06.52,1.49,1.49,0,0,0,.07.47,1.32,1.32,0,0,1,0,.26l.06.26a.83.83,0,0,1,0,.15,1.86,1.86,0,0,0,.11.52,1.82,1.82,0,0,0,.11.46c0,.21.14.4.14.62s.14.4.2.6a1.42,1.42,0,0,1,.13.51,3.89,3.89,0,0,0,.16.44q.12.27.21.54a2.49,2.49,0,0,0,.2.54c.08.14.08.31.17.45a1.35,1.35,0,0,1,.19.38,12.43,12.43,0,0,0,.64,1.39l.31.61a2,2,0,0,0,.25.41,1,1,0,0,1,.1.18,3,3,0,0,0,.38.64,3.6,3.6,0,0,0,.29.5c.12.15.2.33.31.48s.19.3.29.44a3.51,3.51,0,0,1,.27.4,3.37,3.37,0,0,0,.28.38.66.66,0,0,1,.12.17,1.16,1.16,0,0,0,.16.21,1.3,1.3,0,0,1,.33.41c.09.09.17.19.25.28a1.57,1.57,0,0,1,.3.37,1.05,1.05,0,0,0,.24.28l1.38,1.38.6.6a1.35,1.35,0,0,0,.33.26l.17.13.23.23a1,1,0,0,0,.25.19.51.51,0,0,1,.13.09l.24.2c.15.05.25.2.4.26l.79.52a4.27,4.27,0,0,1,.44.3l.42.22,1.23.62a4.66,4.66,0,0,0,.73.3l.6.2a.83.83,0,0,0,.15,0,2.73,2.73,0,0,1,.41.1,2.37,2.37,0,0,1,.36.09l.21,0h.37a.52.52,0,0,1,.21,0,1.13,1.13,0,0,0,.41.06h.32a.66.66,0,0,0,.15,0,1.09,1.09,0,0,1,.47-.08h.21A.75.75,0,0,0,32,58l.21,0a1.23,1.23,0,0,0,.46-.1,1.84,1.84,0,0,1,.25-.09,4.69,4.69,0,0,0,.6-.2c.23-.09.44-.21.66-.32l.19-.1.43-.22.35-.23c.12-.07.22-.17.35-.23s.19-.15.31-.21a.48.48,0,0,0,.16-.13c.07,0,.14-.12.21-.16a.67.67,0,0,0,.25-.19,1.82,1.82,0,0,1,.38-.29,1.06,1.06,0,0,0,.2-.17l.49-.48a.82.82,0,0,1,.2-.17,1.9,1.9,0,0,0,.41-.34l.82-.82a1.35,1.35,0,0,0,.3-.37.48.48,0,0,1,.13-.16l.56-.57a2.21,2.21,0,0,0,.44-.52.7.7,0,0,1,.14-.16l.41-.42a1,1,0,0,0,.16-.2,1,1,0,0,1,.23-.29c.09-.11.19-.2.29-.31a.29.29,0,0,0,.1-.12,1.72,1.72,0,0,1,.41-.48,1.5,1.5,0,0,0,.19-.25,1.63,1.63,0,0,1,.23-.29,1.78,1.78,0,0,0,.37-.45.7.7,0,0,1,.14-.16l.29-.3a.7.7,0,0,0,.14-.16,1.72,1.72,0,0,1,.4-.49,1,1,0,0,0,.22-.29.76.76,0,0,1,.13-.17l.34-.34a.83.83,0,0,0,.16-.21,1.64,1.64,0,0,1,.26-.33,3.19,3.19,0,0,0,.26-.26l.11-.12a3.05,3.05,0,0,1,.55-.64,1.57,1.57,0,0,0,.3-.37.74.74,0,0,1,.16-.2l.67-.68a1.19,1.19,0,0,0,.26-.33l.13-.17.15-.15c.64-.63,1.28-1.27,1.91-1.91a1.64,1.64,0,0,1,.33-.26A1.12,1.12,0,0,0,50,41.2l.49-.48a.82.82,0,0,1,.2-.17,2.32,2.32,0,0,0,.48-.4.93.93,0,0,1,.3-.22.7.7,0,0,0,.16-.14,2.54,2.54,0,0,1,.46-.35l1-.65a3.57,3.57,0,0,0,.55-.41.6.6,0,0,1,.13-.09A.92.92,0,0,0,54,38.1a1.32,1.32,0,0,1,.37-.29.7.7,0,0,0,.16-.14l.94-.93a1.2,1.2,0,0,0,.17-.21l.2-.3a2.09,2.09,0,0,0,.38-.81c0-.07.05-.14.06-.2a.41.41,0,0,0,0-.11,2.41,2.41,0,0,1-.08-.25,1.22,1.22,0,0,0-.33-.54l-.07-.07c-.13-.12-.25-.26-.38-.37a4.17,4.17,0,0,0-.44-.29l-.22-.15a.48.48,0,0,0-.19-.09.8.8,0,0,1-.2-.07c-.13-.05-.27-.07-.4-.13l-.37,0a.65.65,0,0,1-.2,0,.46.46,0,0,0-.26,0,.48.48,0,0,1-.2,0H52.6a.58.58,0,0,0-.26.06.17.17,0,0,1-.1,0,2.27,2.27,0,0,0-.51.14,1.82,1.82,0,0,0-.43.19l-.52.25a5.83,5.83,0,0,0-.73.43c-.25.17-.49.35-.75.5a1,1,0,0,0-.16.13,1.06,1.06,0,0,1-.21.16.89.89,0,0,0-.22.16.78.78,0,0,1-.2.16.79.79,0,0,0-.26.19l-.23.22-.16.13a.93.93,0,0,0-.26.18l-.59.6a1.05,1.05,0,0,1-.29.23,1.22,1.22,0,0,0-.25.2c-.16.16-.32.33-.49.49a1,1,0,0,1-.2.16,1.57,1.57,0,0,0-.37.3l-.68.67a1.35,1.35,0,0,1-.37.3,1.06,1.06,0,0,0-.2.17,2.14,2.14,0,0,1-.49.4l-.12.1a3.13,3.13,0,0,1-.54.42c-.23.16-.48.29-.7.47a10.1,10.1,0,0,1-1,.49,4.84,4.84,0,0,1-.51.14.37.37,0,0,0-.15,0,.6.6,0,0,1-.26,0h-.48a.93.93,0,0,1-.37,0c-.14-.06-.3-.09-.45-.15a2.39,2.39,0,0,1-.64-.45,2,2,0,0,1-.52-.72c-.06-.15-.14-.29-.21-.43a1.14,1.14,0,0,1-.09-.3c0-.21-.1-.41-.16-.62a1.49,1.49,0,0,1,0-.36,1.49,1.49,0,0,0-.07-.47.49.49,0,0,1,0-.21c0-.12,0-.24,0-.37V34.69c0-.12,0-.24,0-.37a.45.45,0,0,1,0-.2,1.52,1.52,0,0,0,.06-.47c0-.14,0-.29,0-.43a.76.76,0,0,1,0-.21,1.29,1.29,0,0,0,.07-.52,1.09,1.09,0,0,1,0-.26,1,1,0,0,0,.07-.41.82.82,0,0,1,.07-.31.75.75,0,0,0,0-.26.88.88,0,0,1,0-.16,1.78,1.78,0,0,0,.1-.51.75.75,0,0,1,0-.16.44.44,0,0,0,.05-.15,1.52,1.52,0,0,1,.12-.56c0-.22.12-.41.13-.62s.06-.42.17-.61a.18.18,0,0,0,0-.1,2.11,2.11,0,0,1,.09-.36,2.73,2.73,0,0,0,.15-.56c0-.13.09-.26.13-.4s.06-.13.06-.2a4.77,4.77,0,0,1,.13-.51c.13-.29.2-.6.31-.9a1.75,1.75,0,0,0,.14-.51,7.22,7.22,0,0,1,.31-.89,1.44,1.44,0,0,0,.13-.4.68.68,0,0,1,.07-.2,3.66,3.66,0,0,0,.21-.55c.12-.36.25-.73.37-1.1a1,1,0,0,1,.09-.24,3.91,3.91,0,0,0,.24-.65c.08-.25.18-.49.24-.75l0-.1a1.75,1.75,0,0,0,.11-.24c0-.1.06-.2.1-.3a1.83,1.83,0,0,0,.08-.25c0-.08.06-.16.08-.25l.12-.35.12-.29a2.44,2.44,0,0,0,.1-.24c.11-.36.24-.7.35-1.06a6,6,0,0,1,.22-.59c.14-.29.22-.6.33-.89s.1-.34.16-.51a.29.29,0,0,0,0-.1,5,5,0,0,1,.18-.66c.06-.2.15-.39.2-.6a.73.73,0,0,0,.09-.35l0-.11c.05-.15.11-.29.15-.45s.06-.31.11-.46,0-.31.12-.46a.71.71,0,0,0,0-.21,1,1,0,0,1,.08-.41.39.39,0,0,0,0-.15c0-.11,0-.22,0-.32a.78.78,0,0,1,0-.21.64.64,0,0,0,.07-.31V9.87a.93.93,0,0,0,0-.37c-.08-.17-.1-.37-.2-.54a.54.54,0,0,0-.14-.16,2,2,0,0,1-.31-.2.35.35,0,0,0-.14-.06l-.15,0a.8.8,0,0,0-.57,0,2,2,0,0,0-.65.33,1.33,1.33,0,0,0-.38.29l-.52.52a.87.87,0,0,0-.19.25,1,1,0,0,1-.2.25,1.7,1.7,0,0,0-.27.33c-.09.15-.19.29-.29.44s-.13.21-.19.31a1.55,1.55,0,0,1-.2.32c0,.05-.06.12-.1.18a2.67,2.67,0,0,1-.22.36,3.47,3.47,0,0,0-.18.33c-.12.23-.23.47-.35.71a1.62,1.62,0,0,1-.1.18,2.69,2.69,0,0,0-.19.32c0,.11-.08.23-.13.34l-.45.9a6.1,6.1,0,0,0-.38.82,2.39,2.39,0,0,1-.2.43,2.47,2.47,0,0,0-.22.53,1.12,1.12,0,0,1-.11.25,3.51,3.51,0,0,0-.33.77s0,.06,0,.09a4.48,4.48,0,0,0-.29.68.66.66,0,0,1-.11.24,3,3,0,0,0-.2.49,1,1,0,0,1-.1.24,2.58,2.58,0,0,0-.23.54c0,.11-.12.22-.15.33a4.67,4.67,0,0,1-.37.82c-.09.17-.13.37-.22.54l-.22.48a2.48,2.48,0,0,1-.25.58c-.27.56-.54,1.11-.82,1.66a5.83,5.83,0,0,1-.37.7c-.15.21-.29.44-.45.65a2,2,0,0,1-.35.47,2.89,2.89,0,0,1-.7.55,1.47,1.47,0,0,1-.28.14l-.25.08a.61.61,0,0,1-.42,0,2.48,2.48,0,0,1-.64-.24c-.12-.07-.23-.16-.35-.24a.23.23,0,0,1-.07-.07,5.46,5.46,0,0,1-.56-1,.54.54,0,0,1,0-.1c0-.23-.13-.44-.14-.68a.77.77,0,0,0,0-.26,1.63,1.63,0,0,1-.08-.62V21.28a1.88,1.88,0,0,1,.08-.63,1.12,1.12,0,0,0,0-.32c0-.23,0-.45,0-.68a1.65,1.65,0,0,1,0-.32,1.84,1.84,0,0,0,.06-.47c0-.12,0-.25,0-.37a1.09,1.09,0,0,1,0-.26,1.52,1.52,0,0,0,.07-.52c0-.11,0-.21,0-.32a.74.74,0,0,1,0-.26,1.57,1.57,0,0,0,.08-.52,1.48,1.48,0,0,1,.06-.47.75.75,0,0,0,0-.26c0-.14,0-.28,0-.42a1,1,0,0,1,.07-.42.74.74,0,0,0,0-.26c0-.11,0-.21,0-.32a1.14,1.14,0,0,1,.07-.41.76.76,0,0,0,0-.21c0-.12,0-.25,0-.37a1,1,0,0,1,.07-.42,1.09,1.09,0,0,0,0-.26v-.53a1.2,1.2,0,0,1,0-.2,1.36,1.36,0,0,0,.07-.53c0-.17,0-.35,0-.53a.91.91,0,0,1,.06-.36.57.57,0,0,0,0-.26c0-.28,0-.56,0-.84a.78.78,0,0,1,0-.31A.6.6,0,0,0,30.13,9c0-.09,0-.18,0-.27,0-1.06,0-2.12,0-3.18a2.25,2.25,0,0,0,0-.26.78.78,0,0,0,0-.21A.85.85,0,0,1,30,4.69c0-.11,0-.21,0-.32a1.18,1.18,0,0,0,0-.2,1.08,1.08,0,0,1-.07-.31.81.81,0,0,0-.06-.31c0-.1-.07-.2-.1-.3a3.48,3.48,0,0,0-.26-.63,1.24,1.24,0,0,0-.19-.26C28.91,2,29,2,28.42,2h-.16l-.15,0a1.16,1.16,0,0,0-.39.26c-.08.08-.15.16-.23.23a3.14,3.14,0,0,0-.59.81,2.69,2.69,0,0,0-.3.67.07.07,0,0,1,0,.05,5.32,5.32,0,0,0-.35.94,3.82,3.82,0,0,0-.19.66,1.57,1.57,0,0,1-.11.35,1.76,1.76,0,0,0-.1.41.38.38,0,0,1,0,.1.63.63,0,0,0-.07.3.58.58,0,0,1,0,.26,1.6,1.6,0,0,0-.05.21,1.15,1.15,0,0,1-.08.41.37.37,0,0,0,0,.15,1.88,1.88,0,0,1-.1.47c0,.13,0,.28,0,.42a.11.11,0,0,1,0,.05,1.24,1.24,0,0,0-.08.46.71.71,0,0,1,0,.21.87.87,0,0,0-.07.42,1.21,1.21,0,0,1-.08.46,1.17,1.17,0,0,0,0,.26,1.81,1.81,0,0,1-.07.52.51.51,0,0,0,0,.21c0,.11,0,.22,0,.32a1.09,1.09,0,0,1,0,.26,1.84,1.84,0,0,0-.07.47,1.52,1.52,0,0,1-.07.52,1.09,1.09,0,0,0,0,.26c0,.14,0,.28,0,.43a1.14,1.14,0,0,1,0,.26,2,2,0,0,0-.08.68,1.91,1.91,0,0,1-.07.47.75.75,0,0,0,0,.26c0,.19,0,.39,0,.58a.75.75,0,0,1,0,.26,1.49,1.49,0,0,0-.07.47c0,.11,0,.21,0,.32a.44.44,0,0,1,0,.2,1.88,1.88,0,0,0-.07.53V18a1.13,1.13,0,0,1-.06.41.59.59,0,0,0,0,.26c0,.13,0,.25,0,.37a.94.94,0,0,1-.07.37,1.09,1.09,0,0,0,0,.26v.42a1.52,1.52,0,0,1,0,.21,1.26,1.26,0,0,0-.08.47,1,1,0,0,1-.07.41.71.71,0,0,0,0,.21c0,.1,0,.21,0,.31a.75.75,0,0,1,0,.16.81.81,0,0,0-.06.31,1.21,1.21,0,0,1-.08.46.2.2,0,0,0,0,.11,1.27,1.27,0,0,1-.1.46c0,.08,0,.18-.05.26a4.21,4.21,0,0,0-.12.51,4.2,4.2,0,0,0-.17.5A3.23,3.23,0,0,1,23,25a3.68,3.68,0,0,1-.49.63,1.15,1.15,0,0,1-.35.22,3.17,3.17,0,0,1-.4.14l-.16,0a1.75,1.75,0,0,1-.87-.18l-.28-.14a1.07,1.07,0,0,1-.22-.15c-.08-.09-.17-.17-.26-.26s-.16-.19-.25-.28-.2-.28-.27-.45a3.86,3.86,0,0,1-.32-.72.66.66,0,0,0-.09-.19c-.09-.18-.13-.37-.2-.55a3.79,3.79,0,0,0-.18-.66,1.52,1.52,0,0,1-.06-.2c-.07-.26-.12-.52-.2-.77s0-.25-.06-.37-.05-.2-.08-.3a.11.11,0,0,1,0,0,1.2,1.2,0,0,0-.08-.42.74.74,0,0,1,0-.26,3.57,3.57,0,0,0-.1-.35c0-.13,0-.25,0-.37a.43.43,0,0,0,0-.11.73.73,0,0,1-.07-.36,1.15,1.15,0,0,0,0-.26,1.32,1.32,0,0,1-.08-.52.66.66,0,0,0,0-.15,1.16,1.16,0,0,1-.08-.52.86.86,0,0,0-.07-.36.4.4,0,0,1,0-.15c0-.11,0-.22,0-.32a.88.88,0,0,0,0-.16,1.46,1.46,0,0,1-.09-.62.58.58,0,0,0-.06-.26.75.75,0,0,1,0-.26c0-.09,0-.17,0-.26a.41.41,0,0,0,0-.16,1.14,1.14,0,0,1-.09-.52.25.25,0,0,0,0-.15,1.08,1.08,0,0,1-.07-.47,1,1,0,0,0-.07-.41.71.71,0,0,1,0-.21,1,1,0,0,0-.08-.46.9.9,0,0,1,0-.16c0-.1,0-.21,0-.32a.64.64,0,0,0,0-.2.87.87,0,0,1-.07-.31,1.87,1.87,0,0,0-.09-.41c0-.14,0-.28,0-.42s-.06-.49-.16-.72a1.12,1.12,0,0,1,0-.32.85.85,0,0,0-.06-.31,2.85,2.85,0,0,0-.14-.5c0-.18-.1-.34-.12-.52S16,8.2,16,8a1.82,1.82,0,0,0-.11-.4,4,4,0,0,1-.13-.46A.56.56,0,0,0,15.71,7c-.05-.11-.06-.23-.12-.34a2.14,2.14,0,0,1-.16-.39,3.49,3.49,0,0,0-.15-.34L15,5.42a1,1,0,0,0-.2-.3,2.1,2.1,0,0,1-.22-.3.34.34,0,0,0-.15-.14.83.83,0,0,0-.5-.14H13.7a.33.33,0,0,0-.23.1l-.16.15a.8.8,0,0,0-.15.21l-.24.48a1,1,0,0,0-.1.35c0,.12-.07.23-.09.35s0,.21,0,.32a.19.19,0,0,1,0,.1,1.08,1.08,0,0,0-.07.47v.79a1.09,1.09,0,0,1-.06.36.8.8,0,0,0,0,.57.8.8,0,0,1,0,.26c0,.21,0,.42,0,.64v1.06a1,1,0,0,0,.07.41.71.71,0,0,1,0,.21c0,.21,0,.42,0,.63a.74.74,0,0,0,0,.26,1.08,1.08,0,0,1,.07.47c0,.12,0,.25,0,.37a.8.8,0,0,0,.05.21.7.7,0,0,1,0,.25c0,.13,0,.25,0,.37a.58.58,0,0,0,.05.26.58.58,0,0,1,0,.26c0,.16,0,.32,0,.48a.56.56,0,0,0,0,.25.8.8,0,0,1,.05.26v.27a.76.76,0,0,0,.06.25.8.8,0,0,1,0,.26c0,.12,0,.25,0,.37a.76.76,0,0,0,0,.21.92.92,0,0,1,.07.36,1.32,1.32,0,0,0,.08.52.71.71,0,0,1,0,.21c0,.1,0,.21,0,.32a.51.51,0,0,0,0,.21,1.27,1.27,0,0,1,.08.51,1.15,1.15,0,0,0,.06.37.45.45,0,0,1,0,.2c0,.13,0,.25,0,.37a1.16,1.16,0,0,0,.06.42.57.57,0,0,1,0,.26c0,.11,0,.21,0,.32a1.52,1.52,0,0,0,0,.21,1.32,1.32,0,0,1,.08.52v.32a1.12,1.12,0,0,0,.05.31.91.91,0,0,1,.06.36c0,.2,0,.39,0,.58a1.14,1.14,0,0,0,0,.37,1.48,1.48,0,0,1,.06.47v2a2.06,2.06,0,0,1,0,.26,2.43,2.43,0,0,0-.08.53,1.51,1.51,0,0,1-.06.36c-.06.18-.09.37-.16.56a2.34,2.34,0,0,1-.09.24,5.11,5.11,0,0,1-.44.79.77.77,0,0,1-.22.22l-.35.23a2.88,2.88,0,0,1-.73.3.67.67,0,0,1-.42,0,3.38,3.38,0,0,1-.74-.3.92.92,0,0,1-.25-.19l-.3-.29a2.17,2.17,0,0,1-.32-.36,4.86,4.86,0,0,1-.33-.54,1.81,1.81,0,0,0-.29-.5,2.72,2.72,0,0,1-.27-.57,2.44,2.44,0,0,0-.1-.24,3.58,3.58,0,0,1-.26-.64,1.63,1.63,0,0,0-.09-.19A3.61,3.61,0,0,1,8.33,25c-.08-.27-.23-.52-.3-.79A9.84,9.84,0,0,1,7.6,23a1.18,1.18,0,0,0-.07-.2c-.08-.15-.13-.33-.2-.49s0-.2-.09-.3-.09-.19-.13-.29S7,21.46,7,21.31a.83.83,0,0,0,0-.15,4.43,4.43,0,0,1-.3-.79l0-.1a3.49,3.49,0,0,1-.22-.53c-.06-.17-.15-.32-.22-.48S6.05,19,6,18.81s-.14-.4-.24-.58l-.29-.57c-.09-.19-.18-.38-.28-.57a4.6,4.6,0,0,0-.37-.64.65.65,0,0,1-.13-.23c-.08-.18-.23-.31-.31-.49a.38.38,0,0,0-.1-.12l-.68-.68a1.18,1.18,0,0,0-.22-.14.82.82,0,0,0-.51-.08l-.1,0a3.3,3.3,0,0,0-.39.26.61.61,0,0,0-.21.24A.87.87,0,0,0,2,15.7.54.54,0,0,1,2,16a.59.59,0,0,0,0,.47.75.75,0,0,1,0,.26c0,.15,0,.31,0,.47a.58.58,0,0,0,0,.26.81.81,0,0,1,.05.31,1,1,0,0,0,.08.41,1.52,1.52,0,0,1,0,.21,1.09,1.09,0,0,0,.08.47.66.66,0,0,1,0,.15.75.75,0,0,0,.07.36s0,0,0,.05a5,5,0,0,0,.24.86A4.66,4.66,0,0,1,2.9,21a1.67,1.67,0,0,0,.08.2c.13.42.27.84.41,1.25a3.92,3.92,0,0,1,.16.56,1.83,1.83,0,0,0,.08.25c.14.42.27.84.42,1.26,0,.1,0,.2.08.3a3.47,3.47,0,0,0,.13.46c0,.13.09.26.14.4a1.17,1.17,0,0,1,0,.2,1.22,1.22,0,0,0,.06.26c.1.3.21.59.3.9,0,.1.05.2.08.3a3.47,3.47,0,0,0,.13.46.68.68,0,0,1,.07.2,2.6,2.6,0,0,0,.12.46,2.3,2.3,0,0,1,.12.45.83.83,0,0,0,0,.15,2.78,2.78,0,0,1,.17.61.88.88,0,0,0,0,.15,3.79,3.79,0,0,1,.18.66.08.08,0,0,0,0,.05c.13.37.2.75.33,1.12.07.2.08.41.17.61a5.73,5.73,0,0,0,.14.56l.12.52a.88.88,0,0,0,0,.15,1.07,1.07,0,0,1,.06.31.53.53,0,0,0,0,.25.82.82,0,0,1,.06.26,1.06,1.06,0,0,0,.05.31.8.8,0,0,1,0,.21,1.36,1.36,0,0,0,.09.52,1.2,1.2,0,0,1,0,.2.41.41,0,0,0,0,.16,1.75,1.75,0,0,1,.09.68.77.77,0,0,0,0,.26,1,1,0,0,1,.07.41,1.09,1.09,0,0,0,.08.47.44.44,0,0,1,0,.2c0,.16,0,.32,0,.48a.51.51,0,0,0,0,.21.73.73,0,0,1,.07.36c0,.14,0,.28,0,.42a.76.76,0,0,0,0,.21.92.92,0,0,1,.07.36v.43a.36.36,0,0,0,0,.15,1.46,1.46,0,0,1,.09.62c0,.09,0,.18,0,.27a1,1,0,0,1,.09.51,1,1,0,0,0,.08.52s0,.07,0,.11a1.24,1.24,0,0,0,.09.57,1.49,1.49,0,0,1,0,.21,1,1,0,0,0,.08.41.36.36,0,0,1,0,.1,1.56,1.56,0,0,0,.11.52c0,.23.13.44.14.67a1.82,1.82,0,0,1,.11.4,3.06,3.06,0,0,1,.1.41,1,1,0,0,0,.05.16c.14.41.27.83.42,1.25a4.48,4.48,0,0,0,.27.69c.06.26.22.47.28.74,0,.06.06.12.08.19a2.48,2.48,0,0,1,.25.58,1,1,0,0,0,.11.24c.18.38.37.76.56,1.14a1.34,1.34,0,0,0,.22.36l.27.51a2,2,0,0,0,.3.5l0,0a5.08,5.08,0,0,0,.35.59c.12.17.24.34.35.52a.87.87,0,0,1,.11.18,5.09,5.09,0,0,0,.39.63l.38.57s.05.1.09.13a2.66,2.66,0,0,1,.37.51,4.23,4.23,0,0,0,.32.42,2.46,2.46,0,0,1,.17.27c.2.17.3.43.49.62s.14.24.25.34a1.11,1.11,0,0,1,.22.3.94.94,0,0,0,.09.12,1.47,1.47,0,0,1,.36.46l.25.27a1,1,0,0,1,.2.31.42.42,0,0,1,0,.15c0,.11,0,.21,0,.32a.79.79,0,0,1-.22.53l-.19.18-.09.05c-.12,0-.23.09-.35.11a.38.38,0,0,1-.21,0,2.64,2.64,0,0,0-.3-.1.37.37,0,0,1-.14-.07l-.38-.37s-.05,0-.06-.08a1.63,1.63,0,0,0-.36-.46,1.09,1.09,0,0,1-.13-.17,2.21,2.21,0,0,0-.22-.29c-.09-.11-.16-.23-.25-.34s-.17-.18-.25-.28l-.09-.13a1.48,1.48,0,0,0-.08-.13,3.19,3.19,0,0,1-.44-.6.88.88,0,0,0-.12-.17c-.17-.16-.25-.38-.4-.55-.2-.34-.43-.65-.64-1s-.42-.61-.62-.92a1.74,1.74,0,0,1-.11-.18,3.4,3.4,0,0,0-.28-.45c0-.07-.08-.16-.13-.23A1.71,1.71,0,0,0,9.61,53a2.07,2.07,0,0,1-.19-.32,3.41,3.41,0,0,0-.32-.55A1.24,1.24,0,0,1,9,51.88c-.31-.61-.61-1.23-.93-1.84-.08-.16-.11-.34-.19-.49a5.24,5.24,0,0,1-.23-.48c0-.17-.13-.33-.19-.49s-.13-.33-.19-.49-.12-.3-.17-.45-.13-.4-.19-.6a.42.42,0,0,1,0-.15c0-.19-.12-.34-.14-.51s-.08-.27-.14-.4,0-.25-.08-.36a3.84,3.84,0,0,1-.11-.46,1.36,1.36,0,0,1-.09-.41.65.65,0,0,0,0-.2.85.85,0,0,1-.06-.31.71.71,0,0,0,0-.21.92.92,0,0,1-.07-.36A1,1,0,0,0,6,43.25a.66.66,0,0,1,0-.15,1.32,1.32,0,0,0-.08-.52l0-.32a1.13,1.13,0,0,0-.06-.41.49.49,0,0,1,0-.21c0-.12,0-.24,0-.37a.78.78,0,0,0,0-.26.66.66,0,0,1-.06-.31A2.22,2.22,0,0,0,5.56,40a.71.71,0,0,1,0-.21c0-.12,0-.24,0-.37a.74.74,0,0,0,0-.26,1.82,1.82,0,0,1-.08-.52v-.37a.78.78,0,0,0,0-.21,1.82,1.82,0,0,1-.08-.52,1.06,1.06,0,0,0,0-.31,1.51,1.51,0,0,1-.06-.37,1.64,1.64,0,0,0-.09-.62,1.15,1.15,0,0,1,0-.26A1,1,0,0,0,5,35.64a.7.7,0,0,1,0-.32.84.84,0,0,0,0-.31.79.79,0,0,1,0-.2,1.5,1.5,0,0,0-.09-.42.37.37,0,0,1,0-.15,1,1,0,0,0-.09-.41c0-.23-.12-.44-.15-.67s-.09-.26-.1-.41-.07-.2-.09-.3,0-.17,0-.26l-.12-.35c0-.05,0-.1,0-.15a3.43,3.43,0,0,0-.16-.61s0-.1-.05-.15a1.19,1.19,0,0,0-.09-.36c0-.09-.06-.2-.1-.3a.29.29,0,0,1,0-.1,2.59,2.59,0,0,0-.18-.66c-.06-.15,0-.31-.11-.46a1.34,1.34,0,0,1-.13-.4A7.32,7.32,0,0,0,3,27.89,6.83,6.83,0,0,1,2.74,27a1.76,1.76,0,0,0-.1-.3,2.45,2.45,0,0,1-.11-.41A1.21,1.21,0,0,0,2.45,26c-.11-.35-.22-.7-.35-1.05A2.25,2.25,0,0,1,2,24.46c0-.13-.08-.27-.13-.4-.12-.35-.23-.7-.35-1a1.22,1.22,0,0,1-.06-.26.73.73,0,0,0-.05-.2c-.08-.2-.13-.4-.2-.6s-.13-.4-.2-.6a5.07,5.07,0,0,1-.22-.76.29.29,0,0,0,0-.1c-.07-.22-.13-.44-.21-.66a1.09,1.09,0,0,1-.07-.3,1,1,0,0,0-.07-.42,1.42,1.42,0,0,1,0-.2,1.33,1.33,0,0,0,0-.21,1.57,1.57,0,0,1-.08-.52A.76.76,0,0,0,.2,18a1.66,1.66,0,0,1-.09-.63A.91.91,0,0,0,.05,17a1.1,1.1,0,0,1,0-.31c0-.25,0-.5,0-.74a1.76,1.76,0,0,1,.1-.68c0-.06,0-.14,0-.21A4.54,4.54,0,0,1,.6,14a.41.41,0,0,1,.1-.13A4.11,4.11,0,0,0,1,13.6a3.19,3.19,0,0,1,.6-.44A1.62,1.62,0,0,1,2,13a1.94,1.94,0,0,1,.72-.16h.58a1.93,1.93,0,0,1,.82.19,4.92,4.92,0,0,1,.56.29,2.73,2.73,0,0,1,.47.43l.67.68c.18.28.36.56.56.83a4.7,4.7,0,0,1,.39.69c.26.5.51,1,.76,1.51.08.18.16.35.25.53A2.74,2.74,0,0,0,8,18.5a1.17,1.17,0,0,0,.15.39,5,5,0,0,0,.21.54c.11.19.14.4.23.59a3.27,3.27,0,0,1,.2.55c0,.06,0,.13.08.19a4.85,4.85,0,0,1,.26.69c0,.07.05.14.08.2a5.74,5.74,0,0,1,.26.69,4.54,4.54,0,0,0,.26.7c.05.11.08.23.12.34a1.88,1.88,0,0,1,.16.39c0,.13.11.22.12.35a.07.07,0,0,0,0,.05,2.71,2.71,0,0,1,.17.39,3.42,3.42,0,0,0,.13.34,3.37,3.37,0,0,1,.25.59,1,1,0,0,0,.13.28l.45.9a3.62,3.62,0,0,0,.38.58.2.2,0,0,0,.18.07h.05A.68.68,0,0,0,12,27a1.49,1.49,0,0,0,0-.21.66.66,0,0,1,0-.15,1,1,0,0,0,.08-.47V24.73ZM24.4,38.5v-.22c0-.06,0-.11,0-.16s-.11-.3-.17-.45a5,5,0,0,0-.54-1,.8.8,0,0,0-.23-.22.2.2,0,0,0-.2,0,.5.5,0,0,1-.08.07c-.08.12-.16.23-.23.35a1.36,1.36,0,0,0-.17.39,1.46,1.46,0,0,0-.1.46.55.55,0,0,1-.07.25.61.61,0,0,0,0,.42,1.46,1.46,0,0,1,.09.36.88.88,0,0,0,0,.15,1.16,1.16,0,0,0,.67.63h.11a4,4,0,0,0,.49-.17.54.54,0,0,0,.16-.14c0-.06.07-.12.1-.19A1,1,0,0,0,24.4,38.5Z"/><path class="cls-1" d="M76.17,31.4c-.59,4-3.37,5.26-5.81,5.26-5.14,0-6.13-5.26-6.13-7.9,0-4,1.84-7.87,6.23-7.87,3.26,0,5.16,2.06,5.71,5.42l-2.57.27c-.27-1.22-.8-3.47-3.12-3.47-3.08,0-3.26,4.21-3.26,5.58,0,4.39,1.74,5.65,3.35,5.65,1.45,0,2.8-1.15,3-3.24Z"/><path class="cls-1" d="M82.62,36.66c-3.78,0-5.16-3.35-5.16-5.95,0-3.07,1.88-5.83,5.32-5.83S88,27.66,88,30.74C88,34.57,85.52,36.66,82.62,36.66ZM82.76,27c-2.06,0-2.59,2-2.59,3.79,0,.57,0,3.81,2.55,3.81,2.36,0,2.57-2.69,2.57-3.86C85.29,28.76,84.69,27,82.76,27Z"/><path class="cls-1" d="M94.42,31.63H88.8V29.54h5.62Z"/><path class="cls-1" d="M101.75,36.66c-4.82,0-6.45-4.48-6.45-7.94,0-4.14,2.34-7.83,6.56-7.83s6.45,3.76,6.45,7.87C108.31,33.44,105.76,36.66,101.75,36.66Zm2.82-11.87a2.86,2.86,0,0,0-2.75-1.68c-2.9,0-3.54,3-3.54,5.7,0,1.81.3,5.62,3.49,5.62a3.22,3.22,0,0,0,2.87-1.77,8.14,8.14,0,0,0,.69-3.92A9.78,9.78,0,0,0,104.57,24.79Z"/><path class="cls-1" d="M110.72,40.26V25.11h2.44v2a3.75,3.75,0,0,1,3.46-2.21c3.24,0,4.11,3.61,4.11,5.81a7.46,7.46,0,0,1-1.33,4.57,3.39,3.39,0,0,1-3,1.4,3.33,3.33,0,0,1-3.12-1.81v5.41Zm2.6-8.47a2.6,2.6,0,0,0,2.36,2.85c2.14,0,2.34-2.62,2.34-3.79S117.75,27,115.75,27c-1.22,0-2.43,1.13-2.43,3.19Z"/><path class="cls-1" d="M141.88,36.43h-2.94l-1.24-3.65h-5.88l-1.19,3.65h-2.37l5.1-15.31h3.37ZM137,30.58l-2.22-6.85-2.23,6.85Z"/><path class="cls-1" d="M148.83,36.43a8.45,8.45,0,0,1-1.79.23,3.36,3.36,0,0,1-2.41-.9,3.64,3.64,0,0,1-.78-2.8V27.11h-1.4v-2H144l.23-2.94,2.09-.18v3.12h2.27v2h-2.27v5.51c0,1.56.55,1.83,1.86,1.83.21,0,.37,0,.64,0Z"/><path class="cls-1" d="M156.23,36.43a8.61,8.61,0,0,1-1.79.23,3.39,3.39,0,0,1-2.42-.9,3.68,3.68,0,0,1-.78-2.8V27.11h-1.4v-2h1.57l.22-2.94,2.09-.18v3.12H156v2h-2.28v5.51c0,1.56.55,1.83,1.86,1.83.21,0,.37,0,.65,0Z"/><path class="cls-1" d="M167.84,33.15a4.88,4.88,0,0,1-5,3.51c-3.74,0-5.21-3-5.21-5.86,0-3.32,2-5.92,5.32-5.92,3.68,0,5.17,2.92,5.1,6.2h-7.76a3.78,3.78,0,0,0,.6,2.55,2.37,2.37,0,0,0,2.11,1,2.52,2.52,0,0,0,2.55-1.83Zm-2.45-3.72a2.85,2.85,0,0,0-.56-1.77,2.37,2.37,0,0,0-2-1,2.32,2.32,0,0,0-2,1.1,3.31,3.31,0,0,0-.53,1.66Z"/><path class="cls-1" d="M170.39,25.11h2.32v2.62c.44-.94,1.31-2.85,3.42-2.85,3.67,0,3.6,3.35,3.6,4.85v6.7h-2.54V29.77c0-2.62-1.31-2.66-1.75-2.66s-2.5.14-2.5,4v5.3h-2.55Z"/><path class="cls-1" d="M189.7,36.43V34.16a3.49,3.49,0,0,1-3.33,2.5c-4,0-4.29-4.82-4.29-6,0-2.2,1-6,4.43-6a3.06,3.06,0,0,1,3,2V21.12h2.55V36.43Zm-.16-6.68a3,3,0,0,0-.6-2.07,2.21,2.21,0,0,0-1.74-.85c-2.3,0-2.41,3-2.41,4,0,.78,0,3.79,2.34,3.79a2.65,2.65,0,0,0,2.41-2.89Z"/><path class="cls-1" d="M204.64,33.15a4.87,4.87,0,0,1-5,3.51c-3.74,0-5.21-3-5.21-5.86,0-3.32,2-5.92,5.32-5.92,3.68,0,5.17,2.92,5.1,6.2h-7.76a3.78,3.78,0,0,0,.6,2.55,2.37,2.37,0,0,0,2.11,1,2.51,2.51,0,0,0,2.55-1.83Zm-2.45-3.72a2.9,2.9,0,0,0-.55-1.77,2.4,2.4,0,0,0-2-1,2.32,2.32,0,0,0-2,1.1,3.31,3.31,0,0,0-.53,1.66Z"/><path class="cls-1" d="M207.19,25.11h2.32v2.62c.44-.94,1.31-2.85,3.42-2.85,3.67,0,3.61,3.35,3.61,4.85v6.7H214V29.77c0-2.62-1.31-2.66-1.75-2.66s-2.5.14-2.5,4v5.3h-2.55Z"/><path class="cls-1" d="M228.34,32.5c-.23,1-1,4.16-4.64,4.16s-4.82-3.33-4.82-5.9c0-3.1,1.72-5.88,5.05-5.88a4.22,4.22,0,0,1,4.41,3.9l-2.21.3c-.2-1.49-1-2.11-2.09-2.11a2.22,2.22,0,0,0-2.13,1.77,7.28,7.28,0,0,0-.32,2.13c0,.46,0,3.56,2.31,3.56,1.22,0,1.91-.87,2.23-2.16Z"/><path class="cls-1" d="M239.79,33.15a4.88,4.88,0,0,1-5,3.51c-3.75,0-5.21-3-5.21-5.86,0-3.32,2-5.92,5.32-5.92,3.67,0,5.17,2.92,5.1,6.2h-7.76a3.78,3.78,0,0,0,.6,2.55,2.37,2.37,0,0,0,2.11,1,2.52,2.52,0,0,0,2.55-1.83Zm-2.46-3.72a2.77,2.77,0,0,0-.55-1.77,2.38,2.38,0,0,0-2-1,2.32,2.32,0,0,0-2,1.1,3.31,3.31,0,0,0-.53,1.66Z"/></g></g></svg>